<?xml version="1.0" encoding="UTF-8" standalone="no"?>
<!DOCTYPE svg PUBLIC "-//W3C//DTD SVG 1.1//EN" "http://www.w3.org/Graphics/SVG/1.1/DTD/svg11.dtd">
<svg width="100%" height="100%" viewBox="0 0 500 500" version="1.1" xmlns="http://www.w3.org/2000/svg" xmlns:xlink="http://www.w3.org/1999/xlink" xml:space="preserve" xmlns:serif="http://www.serif.com/" style="fill-rule:evenodd;clip-rule:evenodd;stroke-linejoin:round;stroke-miterlimit:2;">
    <g transform="matrix(1,0,0,1,0,-581)">
        <g id="Artboard3" transform="matrix(1,0,0,1,10,591)">
            <rect x="-10" y="-10" width="500" height="500" style="fill:none;"/>
            <g>
                <g transform="matrix(1.570252,0,0,1.494218,-136.857595,-118.609916)">
                    <path d="M352.89,397.82L127.11,397.82C102.29,397.82 82.17,377.7 82.17,352.88L82.17,127.11C82.17,102.29 102.29,82.17 127.11,82.17L352.88,82.17C377.7,82.17 397.82,102.29 397.82,127.11L397.82,352.88C397.82,377.7 377.7,397.82 352.89,397.82Z" style="fill:rgb(105,108,113);fill-rule:nonzero;"/>
                </g>
                <g transform="matrix(1.223735,1.166205,-1.17306,1.139903,265.95338,-343.719186)">
                    <path d="M249.239,382.103C249.239,382.103 200.32,346.82 189.69,335.19C189.69,335.19 186.03,332.89 190.21,309.34C190.21,309.34 196.73,264.58 196.94,262.85C197.16,261.12 200.62,240.34 204.52,227.14C208.42,213.94 219.67,174.76 222.27,165.02C224.87,155.28 236.34,124.11 240.02,114.16C243.7,104.21 242.4,109.18 242.4,109.18C242.4,109.18 241.32,121.73 238.07,144.24C234.82,166.75 230.93,186.88 229.85,199C228.77,211.12 224.66,244.89 235.48,267.61C246.3,290.33 255.18,305.49 265.78,316.09C276.39,326.7 291.8,344.76 291.8,344.76C291.8,344.76 278.52,353.26 251.2,367.88C250.2,368.42 250.199,381.453 249.239,382.103Z" style="fill:white;fill-rule:nonzero;"/>
                </g>
            </g>
        </g>
    </g>
</svg>
